<svg style="object-fit:cover" id="my-svg" version="1" baseProfile="full" width="100%" height="100%" viewBox="0 0 770 951" xmlns="http://www.w3.org/2000/svg"><rect width="770" height="951" fill="#d8cbcb"/><path transform="scale(1, 1)" d="M 0,951 V 0,475 C 132.33333333333331,450.5 264.66666666666663,426 393,426 C 521.3333333333334,426 645.6666666666667,450.5 770,475 C 770,475 770,951 770,951 Z" stroke="none" stroke-width="0" fill="#271b1d70" class="transition-all duration-300 ease-in-out delay-150" style="transform-origin: center center;"/><path transform="scale(1, 1)" d="M 0,951 V 0,713 C 147.83333333333331,789 295.66666666666663,865 424,865 C 552.3333333333334,865 661.1666666666667,789 770,713 C 770,713 770,951 770,951 Z" stroke="none" stroke-width="0" fill="#271b1d80" class="transition-all duration-300 ease-in-out delay-150" style="transform-origin: center center;"/><path transform="scale(1, 1)" d="M 0,951 V 0,1069 C 143.83333333333331,1047.5 287.66666666666663,1026 416,1026 C 544.3333333333334,1026 657.1666666666667,1047.5 770,1069 C 770,1069 770,951 770,951 Z" stroke="none" stroke-width="0" fill="#271b1d90" class="transition-all duration-300 ease-in-out delay-150" style="transform-origin: center center;"/><path transform="scale(1, 1)" d="M 0,951 V 0,1604 C 116.33333333333334,1674 232.66666666666669,1744 361,1744 C 489.3333333333333,1744 629.6666666666666,1674 770,1604 C 770,1604 770,951 770,951 Z" stroke="none" stroke-width="0" fill="#271b1dff" class="transition-all duration-300 ease-in-out delay-150" style="transform-origin: center center;"/></svg>