<svg style="object-fit:cover" id="my-svg" version="1" baseProfile="full" width="100%" height="100%" viewBox="0 0 770 951" xmlns="http://www.w3.org/2000/svg"><rect width="770" height="951" fill="#d8cbcb"/><path transform="scale(1, 1)" d="M 0,951 V 0,475 C 128.83333333333331,420 257.66666666666663,365 386,365 C 514.3333333333334,365 642.1666666666667,420 770,475 C 770,475 770,951 770,951 Z" stroke="none" stroke-width="0" fill="#271b1d70" class="transition-all duration-300 ease-in-out delay-150" style="transform-origin: center center;"/><path transform="scale(1, 1)" d="M 0,951 V 0,713 C 112.83333333333334,672.5 225.66666666666669,632 354,632 C 482.3333333333333,632 626.1666666666666,672.5 770,713 C 770,713 770,951 770,951 Z" stroke="none" stroke-width="0" fill="#271b1d80" class="transition-all duration-300 ease-in-out delay-150" style="transform-origin: center center;"/><path transform="scale(1, 1)" d="M 0,951 V 0,1069 C 134.33333333333331,994 268.66666666666663,919 397,919 C 525.3333333333334,919 647.6666666666667,994 770,1069 C 770,1069 770,951 770,951 Z" stroke="none" stroke-width="0" fill="#271b1d90" class="transition-all duration-300 ease-in-out delay-150" style="transform-origin: center center;"/><path transform="scale(1, 1)" d="M 0,951 V 0,1604 C 108.33333333333334,1633.5 216.66666666666669,1663 345,1663 C 473.3333333333333,1663 621.6666666666666,1633.5 770,1604 C 770,1604 770,951 770,951 Z" stroke="none" stroke-width="0" fill="#271b1dff" class="transition-all duration-300 ease-in-out delay-150" style="transform-origin: center center;"/></svg>