<svg style="object-fit:cover" id="my-svg" version="1" baseProfile="full" width="100%" height="100%" viewBox="0 0 770 951" xmlns="http://www.w3.org/2000/svg"><rect width="770" height="951" fill="#d8cbcb"/><path transform="scale(1, 1)" d="M 0,951 V 0,475 C 97.83333333333334,563.5 195.66666666666669,652 324,652 C 452.3333333333333,652 611.1666666666666,563.5 770,475 C 770,475 770,951 770,951 Z" stroke="none" stroke-width="0" fill="#271b1d70" class="transition-all duration-300 ease-in-out delay-150" style="transform-origin: center center;"/><path transform="scale(1, 1)" d="M 0,951 V 0,713 C 105.33333333333334,755 210.66666666666669,797 339,797 C 467.3333333333333,797 618.6666666666666,755 770,713 C 770,713 770,951 770,951 Z" stroke="none" stroke-width="0" fill="#271b1d80" class="transition-all duration-300 ease-in-out delay-150" style="transform-origin: center center;"/><path transform="scale(1, 1)" d="M 0,951 V 0,1069 C 149.33333333333331,1044 298.66666666666663,1019 427,1019 C 555.3333333333334,1019 662.6666666666667,1044 770,1069 C 770,1069 770,951 770,951 Z" stroke="none" stroke-width="0" fill="#271b1d90" class="transition-all duration-300 ease-in-out delay-150" style="transform-origin: center center;"/><path transform="scale(1, 1)" d="M 0,951 V 0,1604 C 109.33333333333334,1679.5 218.66666666666669,1755 347,1755 C 475.3333333333333,1755 622.6666666666666,1679.5 770,1604 C 770,1604 770,951 770,951 Z" stroke="none" stroke-width="0" fill="#271b1dff" class="transition-all duration-300 ease-in-out delay-150" style="transform-origin: center center;"/></svg>