<svg id="SvgjsSvg1001" width="288" height="288" xmlns="http://www.w3.org/2000/svg" version="1.1" xmlns:xlink="http://www.w3.org/1999/xlink" xmlns:svgjs="http://svgjs.com/svgjs"><defs id="SvgjsDefs1002"></defs><g id="SvgjsG1008" transform="matrix(1,0,0,1,0,0)"><svg xmlns="http://www.w3.org/2000/svg" enable-background="new 0 0 84.93 122.88" viewBox="0 0 84.93 122.88" width="288" height="288"><path d="M32.01,79.13c0.3,1.6,0.27,3.23-0.08,4.78c-1.42,6.37-7.58,10.25-13.92,8.48c-2.07-0.58-4.02-1.72-5.63-3.34 c0.95,3.53,2.24,6.58,4.87,10.7c4.59,7.2,10.48,12.05,16.8,14.74c4.84,2.06,9.96,2.85,14.93,2.44c4.97-0.41,9.79-2.02,14.05-4.74 c5.33-3.4,9.83-8.56,12.71-15.33c1.66-3.9,2.67-8.71,3.11-13.66c0.49-5.49,0.27-11.13-0.53-15.9c-0.41-2.44-1.3-4.49-2.63-5.95 c-1.18-1.29-2.76-2.14-4.73-2.4c-7.19-0.97-14.78,0-22.04-0.52c-3.16-0.23-5.48-0.39-5.85,2.9c-0.14,1.2-0.08,2.29,0.13,3.29 c0.47,2.21,1.77,3.96,3.51,5.23c1.88,1.37,4.28,2.21,6.8,2.49c1.7,0.19,3.44,0.12,5.08-0.21c1.52-0.41,3.1,0.46,3.56,1.98 c2.06,6.88-13.28,1.15-13.64,13.96c-0.01,0.37-0.02,0.74-0.03,0.98c-0.05,1.61-1.39,2.87-3,2.82c-1.61-0.05-2.87-1.39-2.82-3 c0.01-0.43,0.02-0.7,0.03-0.95c0.16-5.63,0.24-8.61,4.39-11.25c-1.35-0.56-2.64-1.27-3.8-2.11c-0.48-0.35-0.92-0.72-1.32-1.11 c-0.81,1.47-1.94,2.77-3.37,3.76c-0.13,0.09-0.25,0.17-0.38,0.25C36.29,78.69,34.14,79.22,32.01,79.13L32.01,79.13z M5.99,79.9 L2.1,74.04c-3.01-4.54-2.52-9.23-0.21-12.71c0.88-1.33,2.03-2.47,3.36-3.35c1.33-0.89,2.84-1.51,4.43-1.79 c0.67-0.12,1.35-0.18,2.04-0.17c-0.15-1.22-0.1-2.45,0.14-3.63c0.56-2.8,2.14-5.38,4.57-7.07c0.12-0.09,0.25-0.17,0.38-0.25 c2.64-1.68,5.69-2.05,8.54-1.32c0.61,0.16,1.22,0.36,1.81,0.62c-0.44-2.03-0.39-4.08,0.11-5.99c0.8-3.06,2.73-5.75,5.66-7.35 c2.93-1.61,6.28-1.8,9.3-0.81c2.96,0.97,5.63,3.08,7.28,6.1c3.4,6.22,3.76,7.05,4.12,7.89c0.27,0.62,0.53,1.24,2.53,4.93 l0.04-36.53h-0.01l0,0h0.01c0-3.44,1.33-6.56,3.47-8.83c4.72-5.01,12.39-5.01,17.11,0.01c2.13,2.27,3.46,5.4,3.45,8.84h0.01l0,0 h-0.01l-0.04,42.63l0.01,0c0,0.67-0.23,1.29-0.61,1.79c0.14,0.14,0.27,0.28,0.4,0.42c2.12,2.31,3.49,5.38,4.09,8.91 c0.88,5.19,1.11,11.35,0.57,17.36C84.15,89.25,83,94.68,81.1,99.15c-3.36,7.89-8.65,13.94-14.95,17.96 c-5.09,3.25-10.81,5.16-16.7,5.65c-5.88,0.49-11.94-0.44-17.69-2.89c-7.34-3.12-14.15-8.72-19.42-16.98 c-4.85-7.6-5.67-11.82-7.28-20.06l-0.03-0.17C4.84,81.59,5.23,80.55,5.99,79.9L5.99,79.9z M24.05,75.6 c-0.6-0.58-1.16-1.24-1.66-1.95l-7.73-11.06c-1.33-0.88-2.74-1.12-4.03-0.89c-0.82,0.15-1.61,0.47-2.31,0.94 c-0.71,0.47-1.32,1.08-1.79,1.78c-1.16,1.75-1.38,4.16,0.21,6.55l8.6,12.95c1.05,1.58,2.55,2.66,4.14,3.11 c3.24,0.9,6.27-1.06,7-4.31c0.33-1.49,0.12-3.11-0.73-4.53c-0.07-0.11-0.11-0.18-0.14-0.22L24.05,75.6L24.05,75.6z M21.68,61.93 l6.66,10.03c0.82,0.68,1.75,1.17,2.72,1.41c1.42,0.36,2.92,0.2,4.17-0.6c0.06-0.04,0.12-0.08,0.18-0.12 c1.2-0.84,1.99-2.14,2.28-3.58c0.29-1.46,0.06-3.02-0.79-4.36c-0.05-0.07-0.09-0.14-0.14-0.21l-8.69-12.44 c-1.05-1.5-2.52-2.51-4.09-2.91c-1.43-0.36-2.92-0.2-4.17,0.6c-0.06,0.04-0.12,0.08-0.19,0.12c-1.2,0.84-1.99,2.15-2.28,3.58 c-0.29,1.46-0.06,3.02,0.79,4.36c0.05,0.07,0.09,0.14,0.14,0.21l0.37,0.53C19.73,59.42,20.75,60.54,21.68,61.93L21.68,61.93z M40.43,35.74c-1.56-0.51-3.25-0.43-4.71,0.37c-1.44,0.79-2.41,2.14-2.81,3.7c-0.43,1.66-0.24,3.55,0.65,5.26l5.2,9.97 c0.99-1.33,2.22-2.44,3.71-3.3c2.03-1.18,4.49-1.85,7.43-1.98c-1.15-2.17-1.39-2.73-1.63-3.29c-0.32-0.74-0.63-1.47-3.87-7.39 C43.5,37.42,42.04,36.26,40.43,35.74L40.43,35.74z M63.91,7.75c-1.17,1.24-1.89,2.95-1.9,4.84h0.01l0,0h-0.01l-0.04,39.72 l12.4,0.01l0.04-39.72H74.4l0,0h0.01c0-1.89-0.72-3.61-1.88-4.85C70.12,5.19,66.32,5.18,63.91,7.75L63.91,7.75z" fill="#63464a" class="color000 svgShape"></path></svg></g></svg>